<?xml version="1.0" encoding="UTF-8" standalone="no"?>
<svg viewBox="0 0 48 48" xmlns="http://www.w3.org/2000/svg" xmlns:xlink="http://www.w3.org/1999/xlink">
<defs>
<linearGradient id="linearGradient5060">
<stop offset="0"/>
<stop offset="1" stop-opacity="0"/>
</linearGradient>
<linearGradient gradientUnits="userSpaceOnUse" id="linearGradient6715" x2="0" y1="-150.69685" y2="327.66039">
<stop offset="0" stop-opacity="0"/>
<stop offset=".5"/>
<stop offset="1" stop-opacity="0"/>
</linearGradient>
<linearGradient gradientTransform="matrix(1.46489,0,0,.47591,30.56501,-34.34268)" gradientUnits="userSpaceOnUse" id="linearGradient1872" x1="-4.63752" x2="-4.52392" y1="104.38752" y2="110.61378">
<stop offset="0" stop-color="#eff3f4"/>
<stop offset="1" stop-color="#939596"/>
</linearGradient>
<linearGradient gradientUnits="userSpaceOnUse" id="linearGradient160" x1="39.85242" x2="44.08382">
<stop offset="0" stop-color="#babdb6"/>
<stop offset="1" stop-color="#f1f5ec"/>
</linearGradient>
<linearGradient gradientUnits="userSpaceOnUse" id="linearGradient164" x1="4.16936" x2="44.08058">
<stop offset="0" stop-color="#575955"/>
<stop offset="1" stop-color="#7c7e79"/>
</linearGradient>
<linearGradient gradientTransform="scale(1.17564,.8506)" gradientUnits="userSpaceOnUse" id="linearGradient1068" x1="10.86145" x2="30.58731" y1="33.1392" y2="37.7208">
<stop offset="0" stop-color="#b5c051"/>
<stop offset="1" stop-color="#858e3f"/>
</linearGradient>
<linearGradient gradientTransform="scale(1.17564,.8506)" gradientUnits="userSpaceOnUse" id="linearGradient101" x1="19.34712" x2="19.67292" y1="23.11408" y2="52.62547">
<stop offset="0" stop-color="#616c08"/>
<stop offset="1" stop-color="#495106"/>
</linearGradient>
<linearGradient gradientTransform="scale(1.17564,.8506)" gradientUnits="userSpaceOnUse" id="linearGradient374" x1="17.57395" x2="25.31245" y1="25.33542" y2="48.80508">
<stop offset="0" stop-color="#fff" stop-opacity=".10309"/>
<stop offset="1" stop-color="#fff" stop-opacity="0"/>
</linearGradient>
<linearGradient gradientTransform="scale(1.21567,.82259)" gradientUnits="userSpaceOnUse" id="linearGradient384" x1="19.97749" x2="19.85777" y1="38.9627" y2="23.60078">
<stop offset="0" stop-color="#fff"/>
<stop offset="1" stop-color="#fff" stop-opacity="0"/>
</linearGradient>
<linearGradient gradientTransform="matrix(3.49502,0,0,.34432,-2.97209,-3.408148e-2)" gradientUnits="userSpaceOnUse" id="linearGradient3977" x1="7.37386" x2="7.52911" xlink:href="#linearGradient5060" y1="27.37662" y2="69.4605"/>
<radialGradient cx="605.71429" cy="486.64789" gradientTransform="matrix(-2.77439,0,0,1.96971,112.7623,-872.8854)" gradientUnits="userSpaceOnUse" id="radialGradient6719" r="117.14286" xlink:href="#linearGradient5060"/>
<radialGradient cx="605.71429" cy="486.64789" gradientTransform="matrix(2.77439,0,0,1.96971,-1891.633,-872.8854)" gradientUnits="userSpaceOnUse" id="radialGradient6717" r="117.14286" xlink:href="#linearGradient5060"/>
</defs>
<g transform="matrix(2.262383e-2,0,0,1.966248e-2,44.39519,41.98146)">
<path d="m-1559.2523-150.69685h1339.6335v478.35718h-1339.6335z" fill="url(#linearGradient6715)" opacity=".40206"/>
<path d="m-219.61876-150.68038v478.33079c142.87417.90045 345.40022-107.16966 345.40014-239.19618s-159.43682-239.13459-345.40014-239.13462z" fill="url(#radialGradient6717)" opacity=".40206"/>
<path d="m-1559.2523-150.68038v478.33079c-142.8742.90045-345.4002-107.16966-345.4002-239.19618s159.4368-239.13459 345.4002-239.13462z" fill="url(#radialGradient6719)" opacity=".40206"/>
</g>
<path d="m3.8367,16.81024c-.04409-.03506 1.73196,25.22397 1.73247,25.23163 .16661,2.52254 1.56527,3.44449 3.13076,3.44825 .05594.00013 29.36948-.00325 29.99401-.00588 2.63637-.01109 3.28225-1.61654 3.45567-3.37066 .01391-.03458 1.78905-25.26875 1.80296-25.30334h-40.11587z" fill="url(#linearGradient1068)" fill-rule="evenodd" stroke="url(#linearGradient101)" stroke-width=".99592" transform="matrix(.99709,0,0,1.01116,.17527,-.49783)"/>
<path d="m43.18838,18.93095-35.98852-.02316c27.1143.63057 32.44149,3.60944 35.74652,3.45723l.24201-3.43408z" display="block" fill="url(#linearGradient3977)" transform="matrix(1.00727,0,0,1.01072,-.25217,-.11055)"/>
<g fill="#fff" fill-opacity=".4881" transform="matrix(1.40218,0,0,1.43894,-66.03801,-8.12639)">
<path d="m64.13115,25.32545 3.79699.2897 1.46826-3.57456-1.73726,1.22099c0,0-.74491-1.7374-1.28031-1.87708s-2.81969-.09311-2.81969-.09311c.72656.17969 1.29124,1.42813 1.29992,1.44229 .22667.36986.86117,1.61438.86117,1.61438l-1.58907.97739z" fill-rule="evenodd"/>
<path d="m64.60089,22.85276-1.25687,2.39767-2.5839-1.62949c0,0 1.1717-2.21144 2.09505-2.21144 .93117,0 1.34728.80263 1.74572,1.44326z" fill-opacity=".30952" fill-rule="evenodd"/>
<path d="m66.45098,28.54554-2.44803,2.92574 2.33613,3.01678 .04321-1.90012c0,0 1.72076.16239 2.1157-.22515s2.03795-2.34152 2.03795-2.34152c-.5275.53097-1.88866.37387-1.90527.37404-.43377.0044-2.15056-.03566-2.15056-.03566l-.02913-1.81411z" fill-rule="evenodd"/>
<path d="m68.74841,30.06135-1.41106-2.31029 2.72565-1.37936c0,0 1.29507,2.14153.8206,2.93366-.47848.79883-1.38087.74337-2.13518.75599z" fill-opacity=".30952" fill-rule="evenodd"/>
<path d="m62.17019,28.37565-1.2085-3.18272-3.52394.24904 1.44662,1.05381c0,0-.99904,1.41043-.86013,1.94604s.92254,2.75459.92254,2.75459c-.1971-.72204.61799-1.82344.62613-1.83792 .21254-.37815 1.10357-1.84616 1.10357-1.84616l1.49372.86332z" fill-rule="evenodd"/>
<path d="m59.75277,29.66115 2.70621-.07067-.16398,3.05039c0,0-2.50208.05431-2.95198-.75203s.04446-1.56761.40976-2.2277z" fill-opacity=".30952" fill-rule="evenodd"/>
</g>
<path d="m41.62473,23.65181c-5.32537,2.33441-12.62053,4.66918-18.56851,4.71875-6.53999.0545-11.35867,3.16047-16.23993,5.54419 .19468,2.88022.40939,4.89119.67456,8.11677 .13227,1.60895.63792,1.57073 2.94037,1.57073l28.25758.01294c1.76054,0 1.55957-1.25173 1.65468-2.45044 .4604-5.80286.87425-11.6885 1.28125-17.51294z" fill="url(#linearGradient374)" fill-rule="evenodd" transform="matrix(.99709,0,0,1.01116,.25393,-.65481)"/>
<path d="m5.20986,19.40282c-.05141-.00013.83919,12.6756 1.54676,21.56556 .18254,2.28199.55353,3.21077 1.99115,3.21077 11.8513,0 28.69411.08515 29.26763.08307 2.77458-.01005 2.72265-1.02603 2.95244-3.18471 .08365-.78583 1.53697-21.5863 1.52311-21.5863-9.92996,0-25.01229-.05677-37.28109-.08839z" fill="none" stroke="url(#linearGradient384)" stroke-opacity=".28571" stroke-width=".99592" transform="matrix(.99709,0,0,1.01116,.21998,-.49783)"/>
<path d="m7.53849,4.73063c-1.04432.00237-1.91834.02635-2.39441,1.01357-.08275.17159-2.60495,7.13563-2.72621,7.40121-1.03811,2.2736-.08076,5.13762 1.92431,5.11845 .38131-.00353 39.51022.01776 40.11698,0 1.70682-.04908 1.92524-3.36558 1.19046-4.85753-.04163-.08452-3.4518-7.75704-3.53877-7.89293-.40227-.60692-1.30313-.87291-1.9723-.848-.13182.00503-32.4696.06494-32.60006.06523z" fill="url(#linearGradient1872)" fill-rule="evenodd" stroke="#4d5506" stroke-width=".97545" transform="matrix(1.02149,0,0,1.02886,-.53722,-.29842)"/>
<path d="m7.72045,6.39005c-.98493-.01273-1.04906-.05081-1.27077.64619-.05118.1609-2.1132,6.49536-2.19402,6.74117-.27488.83595.11383,1.05657 1.06775,1.03958 .33792-.00602 37.34676,0 37.88477,0 .76377,0 .99033-.2516.8178-.8454-.07011-.24128-2.94071-7.00463-3.01779-7.12508-.35654-.53792-.29471-.53636-.91746-.54394l-32.37027.08748z" display="block" fill="url(#linearGradient164)" fill-rule="evenodd" transform="matrix(1.00559,0,0,1.02701,-.13408,-.27097)"/>
<path d="m7.19144,6.38699c-.37087.02831-.54926.1382-.70449.62622-.05118.1609-2.11093,6.48601-2.19176,6.73183-.27488.83595.08977,1.06068 1.04369,1.04369h2.13667l-.28411-8.40173z" display="block" fill="#2e3436" fill-rule="evenodd" transform="matrix(1.00559,0,0,1.02886,-.13408,-.29842)"/>
<path d="m40.14346,6.29991c.45076.00385.58312-.00518.87128.53952 .03941.07449 2.8744,6.79317 2.97619,7.03898 .34617.9471-.31313.9273-1.35884.95477l-2.77973-.02223 .2911-8.51104z" display="block" fill="url(#linearGradient160)" fill-rule="evenodd" transform="matrix(1.00559,0,0,1.02886,-.13408,-.29842)"/>
</svg>
